{
  "accessors": [
    {
      "bufferView": 2,
      "componentType": 5126,
      "count": 3998,
      "max": [
        306.3688049316406,
        425.16473388671875,
        620.0675659179688
      ],
      "min": [
        -195.77301025390625,
        -74.1512451171875,
        102.76887512207031
      ],
      "type": "VEC3"
    },
    {
      "bufferView": 2,
      "byteOffset": 47976,
      "componentType": 5126,
      "count": 3998,
      "max": [
        1.0,
        1.0,
        1.0
      ],
      "min": [
        -1.0,
        -1.0,
        -1.0
      ],
      "type": "VEC3"
    },
    {
      "bufferView": 1,
      "componentType": 5126,
      "count": 3998,
      "max": [
        1.0,
        1.0
      ],
      "min": [
        0.0,
        0.0
      ],
      "type": "VEC2"
    },
    {
      "bufferView": 0,
      "componentType": 5125,
      "count": 7398,
      "type": "SCALAR"
    },
    {
      "bufferView": 2,
      "byteOffset": 95952,
      "componentType": 5126,
      "count": 1776,
      "max": [
        229.41525268554688,
        417.04766845703125,
        511.3059997558594
      ],
      "min": [
        -182.2324676513672,
        -384.86334228515625,
        98.96099853515625
      ],
      "type": "VEC3"
    },
    {
      "bufferView": 2,
      "byteOffset": 117264,
      "componentType": 5126,
      "count": 1776,
      "max": [
        1.0,
        1.0,
        1.0
      ],
      "min": [
        -1.0,
        -1.0,
        -1.0
      ],
      "type": "VEC3"
    },
    {
      "bufferView": 1,
      "byteOffset": 31984,
      "componentType": 5126,
      "count": 1776,
      "max": [
        1.0,
        1.0
      ],
      "min": [
        0.0,
        0.0
      ],
      "type": "VEC2"
    },
    {
      "bufferView": 0,
      "byteOffset": 29592,
      "componentType": 5125,
      "count": 3402,
      "type": "SCALAR"
    },
    {
      "bufferView": 2,
      "byteOffset": 138576,
      "componentType": 5126,
      "count": 4446,
      "max": [
        247.84434509277344,
        -31.852783203125,
        240.54702758789063
      ],
      "min": [
        -173.7254180908203,
        -75.4830322265625,
        134.92405700683594
      ],
      "type": "VEC3"
    },
    {
      "bufferView": 2,
      "byteOffset": 191928,
      "componentType": 5126,
      "count": 4446,
      "max": [
        1.0,
        1.0,
        1.0
      ],
      "min": [
        -1.0,
        -1.0,
        -1.0
      ],
      "type": "VEC3"
    },
    {
      "bufferView": 1,
      "byteOffset": 46192,
      "componentType": 5126,
      "count": 4446,
      "max": [
        1.0,
        1.0
      ],
      "min": [
        0.0,
        0.0
      ],
      "type": "VEC2"
    },
    {
      "bufferView": 0,
      "byteOffset": 43200,
      "componentType": 5125,
      "count": 10752,
      "type": "SCALAR"
    },
    {
      "bufferView": 2,
      "byteOffset": 245280,
      "componentType": 5126,
      "count": 2952,
      "max": [
        405.2413635253906,
        473.7218933105469,
        267.5548095703125
      ],
      "min": [
        -294.3116149902344,
        -392.15618896484375,
        -25.937774658203125
      ],
      "type": "VEC3"
    },
    {
      "bufferView": 2,
      "byteOffset": 280704,
      "componentType": 5126,
      "count": 2952,
      "max": [
        1.0,
        1.0,
        1.0
      ],
      "min": [
        -1.0,
        -1.0,
        -1.0
      ],
      "type": "VEC3"
    },
    {
      "bufferView": 1,
      "byteOffset": 81760,
      "componentType": 5126,
      "count": 2952,
      "max": [
        1.0,
        1.0
      ],
      "min": [
        0.0,
        0.0
      ],
      "type": "VEC2"
    },
    {
      "bufferView": 0,
      "byteOffset": 86208,
      "componentType": 5125,
      "count": 4764,
      "type": "SCALAR"
    },
    {
      "bufferView": 2,
      "byteOffset": 316128,
      "componentType": 5126,
      "count": 4009,
      "max": [
        268.02032470703125,
        408.631103515625,
        615.1627197265625
      ],
      "min": [
        -251.1453399658203,
        -142.2762451171875,
        93.448974609375
      ],
      "type": "VEC3"
    },
    {
      "bufferView": 2,
      "byteOffset": 364236,
      "componentType": 5126,
      "count": 4009,
      "max": [
        1.0,
        1.0,
        1.0
      ],
      "min": [
        -1.0,
        -1.0,
        -1.0
      ],
      "type": "VEC3"
    },
    {
      "bufferView": 1,
      "byteOffset": 105376,
      "componentType": 5126,
      "count": 4009,
      "max": [
        0.875,
        1.0
      ],
      "min": [
        0.125,
        0.0
      ],
      "type": "VEC2"
    },
    {
      "bufferView": 0,
      "byteOffset": 105264,
      "componentType": 5125,
      "count": 6852,
      "type": "SCALAR"
    },
    {
      "bufferView": 2,
      "byteOffset": 412344,
      "componentType": 5126,
      "count": 4046,
      "max": [
        275.2126770019531,
        406.4421081542969,
        237.50607299804688
      ],
      "min": [
        -185.65733337402344,
        -783.9127807617188,
        1.954742431640625
      ],
      "type": "VEC3"
    },
    {
      "bufferView": 2,
      "byteOffset": 460896,
      "componentType": 5126,
      "count": 4046,
      "max": [
        1.0,
        1.0,
        1.0
      ],
      "min": [
        -1.0,
        -1.0,
        -1.0
      ],
      "type": "VEC3"
    },
    {
      "bufferView": 1,
      "byteOffset": 137448,
      "componentType": 5126,
      "count": 4046,
      "max": [
        1.0,
        1.0
      ],
      "min": [
        0.0,
        0.0
      ],
      "type": "VEC2"
    },
    {
      "bufferView": 0,
      "byteOffset": 132672,
      "componentType": 5125,
      "count": 8550,
      "type": "SCALAR"
    },
    {
      "bufferView": 2,
      "byteOffset": 509448,
      "componentType": 5126,
      "count": 249,
      "max": [
        154.89219665527344,
        385.3858642578125,
        613.445556640625
      ],
      "min": [
        -181.46844482421875,
        -393.1795654296875,
        123.2784423828125
      ],
      "type": "VEC3"
    },
    {
      "bufferView": 2,
      "byteOffset": 512436,
      "componentType": 5126,
      "count": 249,
      "max": [
        1.0,
        0.9951874613761902,
        6.659896030214441e-07
      ],
      "min": [
        -0.9951834678649902,
        -1.0,
        -0.0020381419453769922
      ],
      "type": "VEC3"
    },
    {
      "bufferView": 1,
      "byteOffset": 169816,
      "componentType": 5126,
      "count": 249,
      "max": [
        1.0,
        0.8333333730697632
      ],
      "min": [
        0.0,
        0.045966532081365585
      ],
      "type": "VEC2"
    },
    {
      "bufferView": 0,
      "byteOffset": 166872,
      "componentType": 5125,
      "count": 507,
      "type": "SCALAR"
    },
    {
      "bufferView": 2,
      "byteOffset": 515424,
      "componentType": 5126,
      "count": 1596,
      "max": [
        230.4401092529297,
        418.84844970703125,
        607.1627197265625
      ],
      "min": [
        -172.7191162109375,
        9.515472412109375,
        91.86819458007813
      ],
      "type": "VEC3"
    },
    {
      "bufferView": 2,
      "byteOffset": 534576,
      "componentType": 5126,
      "count": 1596,
      "max": [
        1.0,
        1.0,
        1.0
      ],
      "min": [
        -1.0,
        -1.0,
        -1.0
      ],
      "type": "VEC3"
    },
    {
      "bufferView": 1,
      "byteOffset": 171808,
      "componentType": 5126,
      "count": 1596,
      "max": [
        0.875,
        1.0
      ],
      "min": [
        0.125,
        -0.018809495493769646
      ],
      "type": "VEC2"
    },
    {
      "bufferView": 0,
      "byteOffset": 168900,
      "componentType": 5125,
      "count": 2520,
      "type": "SCALAR"
    },
    {
      "bufferView": 2,
      "byteOffset": 553728,
      "componentType": 5126,
      "count": 2957,
      "max": [
        273.8548583984375,
        405.08428955078125,
        617.443359375
      ],
      "min": [
        -92.76332092285156,
        -10.47308349609375,
        105.52595520019531
      ],
      "type": "VEC3"
    },
    {
      "bufferView": 2,
      "byteOffset": 589212,
      "componentType": 5126,
      "count": 2957,
      "max": [
        1.0,
        1.0,
        1.0
      ],
      "min": [
        -1.0,
        -1.0,
        -1.0
      ],
      "type": "VEC3"
    },
    {
      "bufferView": 1,
      "byteOffset": 184576,
      "componentType": 5126,
      "count": 2957,
      "max": [
        1.0,
        1.0
      ],
      "min": [
        0.0,
        0.0
      ],
      "type": "VEC2"
    },
    {
      "bufferView": 0,
      "byteOffset": 178980,
      "componentType": 5125,
      "count": 7449,
      "type": "SCALAR"
    },
    {
      "bufferView": 2,
      "byteOffset": 624696,
      "componentType": 5126,
      "count": 1681,
      "max": [
        35.93040466308594,
        120.51072692871094,
        619.1614990234375
      ],
      "min": [
        -181.3686065673828,
        -384.86334228515625,
        157.0016632080078
      ],
      "type": "VEC3"
    },
    {
      "bufferView": 2,
      "byteOffset": 644868,
      "componentType": 5126,
      "count": 1681,
      "max": [
        1.0,
        1.0,
        1.0
      ],
      "min": [
        -1.0,
        -1.0,
        -1.0
      ],
      "type": "VEC3"
    },
    {
      "bufferView": 1,
      "byteOffset": 208232,
      "componentType": 5126,
      "count": 1681,
      "max": [
        1.0,
        1.0
      ],
      "min": [
        0.0,
        0.0
      ],
      "type": "VEC2"
    },
    {
      "bufferView": 0,
      "byteOffset": 208776,
      "componentType": 5125,
      "count": 8646,
      "type": "SCALAR"
    },
    {
      "bufferView": 2,
      "byteOffset": 665040,
      "componentType": 5126,
      "count": 6735,
      "max": [
        689.2091674804688,
        490.1663513183594,
        447.2319030761719
      ],
      "min": [
        416.64471435546875,
        221.48455810546875,
        1.863189697265625
      ],
      "type": "VEC3"
    },
    {
      "bufferView": 2,
      "byteOffset": 745860,
      "componentType": 5126,
      "count": 6735,
      "max": [
        1.0,
        1.0,
        1.0
      ],
      "min": [
        -1.0,
        -1.0,
        -1.0
      ],
      "type": "VEC3"
    },
    {
      "bufferView": 1,
      "byteOffset": 221680,
      "componentType": 5126,
      "count": 6735,
      "max": [
        1.0,
        1.0
      ],
      "min": [
        0.0,
        0.0
      ],
      "type": "VEC2"
    },
    {
      "bufferView": 0,
      "byteOffset": 243360,
      "componentType": 5125,
      "count": 16128,
      "type": "SCALAR"
    },
    {
      "bufferView": 2,
      "byteOffset": 826680,
      "componentType": 5126,
      "count": 6735,
      "max": [
        143.447021484375,
        130.61123657226563,
        298.5438537597656
      ],
      "min": [
        -129.117431640625,
        -138.070556640625,
        -146.82485961914063
      ],
      "type": "VEC3"
    },
    {
      "bufferView": 2,
      "byteOffset": 907500,
      "componentType": 5126,
      "count": 6735,
      "max": [
        1.0,
        1.0,
        1.0
      ],
      "min": [
        -1.0,
        -1.0,
        -1.0
      ],
      "type": "VEC3"
    },
    {
      "bufferView": 1,
      "byteOffset": 275560,
      "componentType": 5126,
      "count": 6735,
      "max": [
        1.0,
        1.0
      ],
      "min": [
        0.0,
        0.0
      ],
      "type": "VEC2"
    },
    {
      "bufferView": 0,
      "byteOffset": 307872,
      "componentType": 5125,
      "count": 16128,
      "type": "SCALAR"
    }
  ],
  "asset": {
    "extras": {
      "author": "CGulia (https://sketchfab.com/CGulia)",
      "license": "CC-BY-4.0 (http://creativecommons.org/licenses/by/4.0/)",
      "source": "https://sketchfab.com/3d-models/pink-house-4c8215427b5e46818db595d6558a7172",
      "title": "Pink House"
    },
    "generator": "Sketchfab-15.30.0",
    "version": "2.0"
  },
  "bufferViews": [
    {
      "buffer": 0,
      "byteLength": 372384,
      "name": "floatBufferViews",
      "target": 34963
    },
    {
      "buffer": 0,
      "byteLength": 329440,
      "byteOffset": 372384,
      "byteStride": 8,
      "name": "floatBufferViews",
      "target": 34962
    },
    {
      "buffer": 0,
      "byteLength": 988320,
      "byteOffset": 701824,
      "byteStride": 12,
      "name": "floatBufferViews",
      "target": 34962
    }
  ],
  "buffers": [
    {
      "byteLength": 1690144,
      "uri": "scene.bin"
    }
  ],
  "materials": [
    {
      "doubleSided": true,
      "name": "roof",
      "pbrMetallicRoughness": {
        "baseColorFactor": [
          0.8,
          0.127564,
          0.124419,
          1.0
        ],
        "metallicFactor": 0.0,
        "roughnessFactor": 0.9395597926092063
      }
    },
    {
      "doubleSided": true,
      "name": "internal",
      "pbrMetallicRoughness": {
        "baseColorFactor": [
          0.9292967742970875,
          0.5140686455554105,
          0.8102397672158095,
          1.0
        ],
        "metallicFactor": 0.0,
        "roughnessFactor": 0.8211145618000169
      }
    },
    {
      "doubleSided": true,
      "name": "Bush",
      "pbrMetallicRoughness": {
        "baseColorFactor": [
          0.3245670579540066,
          0.3369634812221308,
          0.13099781885657644,
          1.0
        ],
        "metallicFactor": 0.0,
        "roughnessFactor": 0.9052541914101894
      }
    },
    {
      "doubleSided": true,
      "name": "wood",
      "pbrMetallicRoughness": {
        "baseColorFactor": [
          0.7999999999999999,
          0.5467869999999999,
          0.21389700000000003,
          1.0
        ],
        "metallicFactor": 0.0,
        "roughnessFactor": 0.8710715793075539
      }
    },
    {
      "doubleSided": true,
      "name": "siding",
      "pbrMetallicRoughness": {
        "baseColorFactor": [
          0.7999999999999999,
          0.2638769999999999,
          0.11659300000000006,
          1.0
        ],
        "metallicFactor": 0.0,
        "roughnessFactor": 0.9178864755689131
      }
    },
    {
      "doubleSided": true,
      "name": "plat",
      "pbrMetallicRoughness": {
        "baseColorFactor": [
          0.624378,
          0.487314,
          0.8,
          1.0
        ],
        "metallicFactor": 0.0,
        "roughnessFactor": 0.8794692869304661
      }
    },
    {
      "doubleSided": true,
      "name": "glass",
      "pbrMetallicRoughness": {
        "baseColorFactor": [
          0.8,
          0.8,
          0.8,
          1.0
        ],
        "metallicFactor": 0.0,
        "roughnessFactor": 0.8040408205773457
      }
    },
    {
      "doubleSided": true,
      "name": "home",
      "pbrMetallicRoughness": {
        "baseColorFactor": [
          0.8,
          0.294234,
          0.342958,
          1.0
        ],
        "metallicFactor": 0.0,
        "roughnessFactor": 0.9093771458475175
      }
    },
    {
      "doubleSided": true,
      "name": "wood2",
      "pbrMetallicRoughness": {
        "baseColorFactor": [
          0.692067,
          0.213084,
          0.0919461,
          1.0
        ],
        "metallicFactor": 0.0,
        "roughnessFactor": 0.931538389597096
      }
    },
    {
      "doubleSided": true,
      "name": "metall",
      "pbrMetallicRoughness": {
        "baseColorFactor": [
          0.127679,
          0.149743,
          0.298929,
          1.0
        ],
        "metallicFactor": 0.0,
        "roughnessFactor": 0.9651568234132509
      }
    }
  ],
  "meshes": [
    {
      "name": "Cube.001_roof_0",
      "primitives": [
        {
          "attributes": {
            "NORMAL": 1,
            "POSITION": 0,
            "TEXCOORD_0": 2
          },
          "indices": 3,
          "material": 0,
          "mode": 4
        }
      ]
    },
    {
      "name": "Cube.001_internal_0",
      "primitives": [
        {
          "attributes": {
            "NORMAL": 5,
            "POSITION": 4,
            "TEXCOORD_0": 6
          },
          "indices": 7,
          "material": 1,
          "mode": 4
        }
      ]
    },
    {
      "name": "Cube.001_Bush_0",
      "primitives": [
        {
          "attributes": {
            "NORMAL": 9,
            "POSITION": 8,
            "TEXCOORD_0": 10
          },
          "indices": 11,
          "material": 2,
          "mode": 4
        }
      ]
    },
    {
      "name": "Cube.001_wood_0",
      "primitives": [
        {
          "attributes": {
            "NORMAL": 13,
            "POSITION": 12,
            "TEXCOORD_0": 14
          },
          "indices": 15,
          "material": 3,
          "mode": 4
        }
      ]
    },
    {
      "name": "Cube.001_siding_0",
      "primitives": [
        {
          "attributes": {
            "NORMAL": 17,
            "POSITION": 16,
            "TEXCOORD_0": 18
          },
          "indices": 19,
          "material": 4,
          "mode": 4
        }
      ]
    },
    {
      "name": "Cube.001_plat_0",
      "primitives": [
        {
          "attributes": {
            "NORMAL": 21,
            "POSITION": 20,
            "TEXCOORD_0": 22
          },
          "indices": 23,
          "material": 5,
          "mode": 4
        }
      ]
    },
    {
      "name": "Cube.001_glass_0",
      "primitives": [
        {
          "attributes": {
            "NORMAL": 25,
            "POSITION": 24,
            "TEXCOORD_0": 26
          },
          "indices": 27,
          "material": 6,
          "mode": 4
        }
      ]
    },
    {
      "name": "Cube.001_home_0",
      "primitives": [
        {
          "attributes": {
            "NORMAL": 29,
            "POSITION": 28,
            "TEXCOORD_0": 30
          },
          "indices": 31,
          "material": 7,
          "mode": 4
        }
      ]
    },
    {
      "name": "Cube.001_wood2_0",
      "primitives": [
        {
          "attributes": {
            "NORMAL": 33,
            "POSITION": 32,
            "TEXCOORD_0": 34
          },
          "indices": 35,
          "material": 8,
          "mode": 4
        }
      ]
    },
    {
      "name": "Cube.001_metall_0",
      "primitives": [
        {
          "attributes": {
            "NORMAL": 37,
            "POSITION": 36,
            "TEXCOORD_0": 38
          },
          "indices": 39,
          "material": 9,
          "mode": 4
        }
      ]
    },
    {
      "name": "Cube.002_Bush_0",
      "primitives": [
        {
          "attributes": {
            "NORMAL": 41,
            "POSITION": 40,
            "TEXCOORD_0": 42
          },
          "indices": 43,
          "material": 2,
          "mode": 4
        }
      ]
    },
    {
      "name": "Cube.003_Bush_0",
      "primitives": [
        {
          "attributes": {
            "NORMAL": 45,
            "POSITION": 44,
            "TEXCOORD_0": 46
          },
          "indices": 47,
          "material": 2,
          "mode": 4
        }
      ]
    }
  ],
  "nodes": [
    {
      "children": [
        1
      ],
      "matrix": [
        1.0,
        0.0,
        0.0,
        0.0,
        0.0,
        2.220446049250313e-16,
        -1.0,
        0.0,
        0.0,
        1.0,
        2.220446049250313e-16,
        0.0,
        0.0,
        0.0,
        0.0,
        1.0
      ],
      "name": "Sketchfab_model"
    },
    {
      "children": [
        2
      ],
      "matrix": [
        0.009999999776482582,
        0.0,
        0.0,
        0.0,
        0.0,
        0.0,
        0.009999999776482582,
        0.0,
        0.0,
        -0.009999999776482582,
        0.0,
        0.0,
        0.0,
        0.0,
        0.0,
        1.0
      ],
      "name": "ef51770eaa8d420ab6c6b13fa7c94cb9.fbx"
    },
    {
      "children": [
        3,
        14,
        16
      ],
      "name": "RootNode"
    },
    {
      "children": [
        4,
        5,
        6,
        7,
        8,
        9,
        10,
        11,
        12,
        13
      ],
      "matrix": [
        1.0,
        0.0,
        0.0,
        0.0,
        0.0,
        -1.6292067939183141e-07,
        -0.9999999999999868,
        0.0,
        0.0,
        0.9999999999999868,
        -1.6292067939183141e-07,
        0.0,
        0.0,
        0.0,
        0.0,
        1.0
      ],
      "name": "Cube.001"
    },
    {
      "mesh": 0,
      "name": "Cube.001_roof_0"
    },
    {
      "mesh": 1,
      "name": "Cube.001_internal_0"
    },
    {
      "mesh": 2,
      "name": "Cube.001_Bush_0"
    },
    {
      "mesh": 3,
      "name": "Cube.001_wood_0"
    },
    {
      "mesh": 4,
      "name": "Cube.001_siding_0"
    },
    {
      "mesh": 5,
      "name": "Cube.001_plat_0"
    },
    {
      "mesh": 6,
      "name": "Cube.001_glass_0"
    },
    {
      "mesh": 7,
      "name": "Cube.001_home_0"
    },
    {
      "mesh": 8,
      "name": "Cube.001_wood2_0"
    },
    {
      "mesh": 9,
      "name": "Cube.001_metall_0"
    },
    {
      "children": [
        15
      ],
      "matrix": [
        1.0,
        0.0,
        0.0,
        0.0,
        0.0,
        -1.6292067939183141e-07,
        -0.9999999999999868,
        0.0,
        0.0,
        0.9999999999999868,
        -1.6292067939183141e-07,
        0.0,
        0.0,
        0.0,
        0.0,
        1.0
      ],
      "name": "Cube.002"
    },
    {
      "mesh": 10,
      "name": "Cube.002_Bush_0"
    },
    {
      "children": [
        17
      ],
      "matrix": [
        -0.24793239265929667,
        -1.1102230246251565e-16,
        -0.9687773369924776,
        0.0,
        -0.9687773369924767,
        -4.3711389841050163e-08,
        0.24793239265929629,
        0.0,
        -4.2346603779108705e-08,
        0.9999999999999991,
        1.0837469366364871e-08,
        0.0,
        -477.4367370605469,
        148.68804931640625,
        35.662811279296875,
        1.0
      ],
      "name": "Cube.003"
    },
    {
      "mesh": 11,
      "name": "Cube.003_Bush_0"
    }
  ],
  "scene": 0,
  "scenes": [
    {
      "name": "Sketchfab_Scene",
      "nodes": [
        0
      ]
    }
  ]
}
