{
  "accessors": [
    {
      "bufferView": 2,
      "componentType": 5126,
      "count": 65532,
      "max": [
        0.10992699861526489,
        -36.073909759521484,
        14.007414817810059
      ],
      "min": [
        -45.979148864746094,
        -51.79438400268555,
        -20.14484214782715
      ],
      "type": "VEC3"
    },
    {
      "bufferView": 2,
      "byteOffset": 786384,
      "componentType": 5126,
      "count": 65532,
      "max": [
        0.9999915361404419,
        0.9999553561210632,
        0.9999587535858154
      ],
      "min": [
        -0.999965488910675,
        -0.9999999403953552,
        -0.9997535943984985
      ],
      "type": "VEC3"
    },
    {
      "bufferView": 1,
      "componentType": 5126,
      "count": 65532,
      "max": [
        0.9950069785118103,
        0.9898149967193604
      ],
      "min": [
        0.0034799999557435513,
        0.0018019999843090773
      ],
      "type": "VEC2"
    },
    {
      "bufferView": 0,
      "componentType": 5125,
      "count": 355572,
      "type": "SCALAR"
    },
    {
      "bufferView": 2,
      "byteOffset": 1572768,
      "componentType": 5126,
      "count": 65532,
      "max": [
        -4.33030891418457,
        -36.42267990112305,
        4.814774990081787
      ],
      "min": [
        -21.217824935913086,
        -50.26826095581055,
        -14.729555130004883
      ],
      "type": "VEC3"
    },
    {
      "bufferView": 2,
      "byteOffset": 2359152,
      "componentType": 5126,
      "count": 65532,
      "max": [
        0.999982476234436,
        0.9998299479484558,
        0.9999874234199524
      ],
      "min": [
        -0.999954342842102,
        -0.9999992847442627,
        -0.999971866607666
      ],
      "type": "VEC3"
    },
    {
      "bufferView": 1,
      "byteOffset": 524256,
      "componentType": 5126,
      "count": 65532,
      "max": [
        0.9999960064888,
        0.9993810057640076
      ],
      "min": [
        1.8000000636675395e-05,
        3.199999991920777e-05
      ],
      "type": "VEC2"
    },
    {
      "bufferView": 0,
      "byteOffset": 1422288,
      "componentType": 5125,
      "count": 342684,
      "type": "SCALAR"
    },
    {
      "bufferView": 2,
      "byteOffset": 3145536,
      "componentType": 5126,
      "count": 65532,
      "max": [
        -0.585660994052887,
        -36.42595672607422,
        -0.8540400266647339
      ],
      "min": [
        -32.608558654785156,
        -48.654823303222656,
        -18.883544921875
      ],
      "type": "VEC3"
    },
    {
      "bufferView": 2,
      "byteOffset": 3931920,
      "componentType": 5126,
      "count": 65532,
      "max": [
        0.9999966025352478,
        0.9998997449874878,
        0.9999901056289673
      ],
      "min": [
        -0.9999873638153076,
        -0.9999995827674866,
        -0.99998539686203
      ],
      "type": "VEC3"
    },
    {
      "bufferView": 1,
      "byteOffset": 1048512,
      "componentType": 5126,
      "count": 65532,
      "max": [
        0.9999979734420776,
        0.9994660019874573
      ],
      "min": [
        7.999999979801942e-06,
        0.000999000039882958
      ],
      "type": "VEC2"
    },
    {
      "bufferView": 0,
      "byteOffset": 2793024,
      "componentType": 5125,
      "count": 337779,
      "type": "SCALAR"
    },
    {
      "bufferView": 2,
      "byteOffset": 4718304,
      "componentType": 5126,
      "count": 65532,
      "max": [
        -20.402372360229492,
        -36.037906646728516,
        5.476459980010986
      ],
      "min": [
        -41.477108001708984,
        -51.60673141479492,
        -14.841180801391602
      ],
      "type": "VEC3"
    },
    {
      "bufferView": 2,
      "byteOffset": 5504688,
      "componentType": 5126,
      "count": 65532,
      "max": [
        0.9999179244041443,
        0.9992263913154602,
        0.9999756217002869
      ],
      "min": [
        -0.9999984502792358,
        -0.9999995231628418,
        -0.9999855160713196
      ],
      "type": "VEC3"
    },
    {
      "bufferView": 1,
      "byteOffset": 1572768,
      "componentType": 5126,
      "count": 65532,
      "max": [
        0.9983429908752441,
        0.9970080256462097
      ],
      "min": [
        0.003567999927327037,
        0.001183000043965876
      ],
      "type": "VEC2"
    },
    {
      "bufferView": 0,
      "byteOffset": 4144140,
      "componentType": 5125,
      "count": 348111,
      "type": "SCALAR"
    },
    {
      "bufferView": 2,
      "byteOffset": 6291072,
      "componentType": 5126,
      "count": 65532,
      "max": [
        -16.356069564819336,
        -36.244224548339844,
        8.983951568603516
      ],
      "min": [
        -31.775585174560547,
        -48.374847412109375,
        -18.10169792175293
      ],
      "type": "VEC3"
    },
    {
      "bufferView": 2,
      "byteOffset": 7077456,
      "componentType": 5126,
      "count": 65532,
      "max": [
        0.9999620914459229,
        0.9997715353965759,
        0.9999918341636658
      ],
      "min": [
        -0.9999443292617798,
        -0.9999992847442627,
        -0.9999989867210388
      ],
      "type": "VEC3"
    },
    {
      "bufferView": 1,
      "byteOffset": 2097024,
      "componentType": 5126,
      "count": 65532,
      "max": [
        0.999983012676239,
        0.9979079961776733
      ],
      "min": [
        9.600000339560211e-05,
        0.0010110000148415565
      ],
      "type": "VEC2"
    },
    {
      "bufferView": 0,
      "byteOffset": 5536584,
      "componentType": 5125,
      "count": 346524,
      "type": "SCALAR"
    },
    {
      "bufferView": 2,
      "byteOffset": 7863840,
      "componentType": 5126,
      "count": 65533,
      "max": [
        -0.8753780126571655,
        -36.03156661987305,
        13.976537704467773
      ],
      "min": [
        -36.11177444458008,
        -51.508914947509766,
        -32.859588623046875
      ],
      "type": "VEC3"
    },
    {
      "bufferView": 2,
      "byteOffset": 8650236,
      "componentType": 5126,
      "count": 65533,
      "max": [
        0.9999786615371704,
        0.9999575018882751,
        0.9999086260795593
      ],
      "min": [
        -0.9999946355819702,
        -0.9999999403953552,
        -0.9999949932098389
      ],
      "type": "VEC3"
    },
    {
      "bufferView": 1,
      "byteOffset": 2621280,
      "componentType": 5126,
      "count": 65533,
      "max": [
        0.9998900294303894,
        0.9979550242424011
      ],
      "min": [
        0.00012799999967683107,
        0.00305499997921288
      ],
      "type": "VEC2"
    },
    {
      "bufferView": 0,
      "byteOffset": 6922680,
      "componentType": 5125,
      "count": 336006,
      "type": "SCALAR"
    },
    {
      "bufferView": 2,
      "byteOffset": 9436632,
      "componentType": 5126,
      "count": 65532,
      "max": [
        -19.7790470123291,
        -35.93674087524414,
        2.8212358951568604
      ],
      "min": [
        -41.05525588989258,
        -51.7974967956543,
        -24.52944564819336
      ],
      "type": "VEC3"
    },
    {
      "bufferView": 2,
      "byteOffset": 10223016,
      "componentType": 5126,
      "count": 65532,
      "max": [
        0.9999678134918213,
        0.9999099373817444,
        0.9999560117721558
      ],
      "min": [
        -0.9999732375144958,
        -1.0,
        -0.999988853931427
      ],
      "type": "VEC3"
    },
    {
      "bufferView": 1,
      "byteOffset": 3145544,
      "componentType": 5126,
      "count": 65532,
      "max": [
        0.9999849796295166,
        0.9993619918823242
      ],
      "min": [
        6.900000153109431e-05,
        0.0019970000721514225
      ],
      "type": "VEC2"
    },
    {
      "bufferView": 0,
      "byteOffset": 8266704,
      "componentType": 5125,
      "count": 336540,
      "type": "SCALAR"
    },
    {
      "bufferView": 2,
      "byteOffset": 11009400,
      "componentType": 5126,
      "count": 17298,
      "max": [
        -25.012645721435547,
        -35.99624252319336,
        -4.880356788635254
      ],
      "min": [
        -45.515052795410156,
        -49.00754165649414,
        -20.40707015991211
      ],
      "type": "VEC3"
    },
    {
      "bufferView": 2,
      "byteOffset": 11216976,
      "componentType": 5126,
      "count": 17298,
      "max": [
        0.9999908804893494,
        0.9999956488609314,
        0.9999896883964539
      ],
      "min": [
        -0.9999946355819702,
        -0.9999998807907104,
        -0.9999563694000244
      ],
      "type": "VEC3"
    },
    {
      "bufferView": 1,
      "byteOffset": 3669800,
      "componentType": 5126,
      "count": 17298,
      "max": [
        0.9999989867210388,
        0.9965630173683167
      ],
      "min": [
        4.400000034365803e-05,
        0.004416000097990036
      ],
      "type": "VEC2"
    },
    {
      "bufferView": 0,
      "byteOffset": 9612864,
      "componentType": 5125,
      "count": 73464,
      "type": "SCALAR"
    }
  ],
  "asset": {
    "extras": {
      "author": "Air Digital (https://sketchfab.com/AirDigitalca)",
      "license": "CC-BY-4.0 (http://creativecommons.org/licenses/by/4.0/)",
      "source": "https://sketchfab.com/3d-models/pigeon-house-in-bathurst-new-brunswick-c3dc3ef71134492e9e3854d0229ec345",
      "title": "Pigeon House in Bathurst New Brunswick"
    },
    "generator": "Sketchfab-15.34.0",
    "version": "2.0"
  },
  "bufferViews": [
    {
      "buffer": 0,
      "byteLength": 9906720,
      "name": "floatBufferViews",
      "target": 34963
    },
    {
      "buffer": 0,
      "byteLength": 3808184,
      "byteOffset": 9906720,
      "byteStride": 8,
      "name": "floatBufferViews",
      "target": 34962
    },
    {
      "buffer": 0,
      "byteLength": 11424552,
      "byteOffset": 13714904,
      "byteStride": 12,
      "name": "floatBufferViews",
      "target": 34962
    }
  ],
  "buffers": [
    {
      "byteLength": 25139456,
      "uri": "scene.bin"
    }
  ],
  "images": [
    {
      "uri": "textures/pigeon_baseColor.jpeg"
    }
  ],
  "materials": [
    {
      "doubleSided": true,
      "name": "pigeon",
      "pbrMetallicRoughness": {
        "baseColorTexture": {
          "index": 0
        },
        "metallicFactor": 0.0
      }
    }
  ],
  "meshes": [
    {
      "name": "Object_0",
      "primitives": [
        {
          "attributes": {
            "NORMAL": 1,
            "POSITION": 0,
            "TEXCOORD_0": 2
          },
          "indices": 3,
          "material": 0,
          "mode": 4
        }
      ]
    },
    {
      "name": "Object_1",
      "primitives": [
        {
          "attributes": {
            "NORMAL": 5,
            "POSITION": 4,
            "TEXCOORD_0": 6
          },
          "indices": 7,
          "material": 0,
          "mode": 4
        }
      ]
    },
    {
      "name": "Object_2",
      "primitives": [
        {
          "attributes": {
            "NORMAL": 9,
            "POSITION": 8,
            "TEXCOORD_0": 10
          },
          "indices": 11,
          "material": 0,
          "mode": 4
        }
      ]
    },
    {
      "name": "Object_3",
      "primitives": [
        {
          "attributes": {
            "NORMAL": 13,
            "POSITION": 12,
            "TEXCOORD_0": 14
          },
          "indices": 15,
          "material": 0,
          "mode": 4
        }
      ]
    },
    {
      "name": "Object_4",
      "primitives": [
        {
          "attributes": {
            "NORMAL": 17,
            "POSITION": 16,
            "TEXCOORD_0": 18
          },
          "indices": 19,
          "material": 0,
          "mode": 4
        }
      ]
    },
    {
      "name": "Object_5",
      "primitives": [
        {
          "attributes": {
            "NORMAL": 21,
            "POSITION": 20,
            "TEXCOORD_0": 22
          },
          "indices": 23,
          "material": 0,
          "mode": 4
        }
      ]
    },
    {
      "name": "Object_6",
      "primitives": [
        {
          "attributes": {
            "NORMAL": 25,
            "POSITION": 24,
            "TEXCOORD_0": 26
          },
          "indices": 27,
          "material": 0,
          "mode": 4
        }
      ]
    },
    {
      "name": "Object_7",
      "primitives": [
        {
          "attributes": {
            "NORMAL": 29,
            "POSITION": 28,
            "TEXCOORD_0": 30
          },
          "indices": 31,
          "material": 0,
          "mode": 4
        }
      ]
    }
  ],
  "nodes": [
    {
      "children": [
        1
      ],
      "matrix": [
        0.894399106502533,
        9.931383220706846e-17,
        -0.4472697377204895,
        0.0,
        -0.00417026923969388,
        -0.9999565482139587,
        -0.008339229971170647,
        0.0,
        -0.44725027680397034,
        0.009323834441602428,
        -0.8943602442741394,
        0.0,
        0.0,
        0.0,
        0.0,
        1.0
      ],
      "name": "Sketchfab_model"
    },
    {
      "children": [
        2,
        3,
        4,
        5,
        6,
        7,
        8,
        9
      ],
      "name": "pigeon.obj.cleaner.materialmerger.gles"
    },
    {
      "mesh": 0,
      "name": "Object_2"
    },
    {
      "mesh": 1,
      "name": "Object_3"
    },
    {
      "mesh": 2,
      "name": "Object_4"
    },
    {
      "mesh": 3,
      "name": "Object_5"
    },
    {
      "mesh": 4,
      "name": "Object_6"
    },
    {
      "mesh": 5,
      "name": "Object_7"
    },
    {
      "mesh": 6,
      "name": "Object_8"
    },
    {
      "mesh": 7,
      "name": "Object_9"
    }
  ],
  "samplers": [
    {
      "magFilter": 9729,
      "minFilter": 9987,
      "wrapS": 10497,
      "wrapT": 10497
    }
  ],
  "scene": 0,
  "scenes": [
    {
      "name": "Sketchfab_Scene",
      "nodes": [
        0
      ]
    }
  ],
  "textures": [
    {
      "sampler": 0,
      "source": 0
    }
  ]
}
